<svg width="24" height="24" viewBox="0 0 24 24" fill="none" xmlns="http://www.w3.org/2000/svg">
<path d="M12.5001 11.5V3.06201C14.8067 3.18335 16.7551 4.04335 18.3451 5.64201C19.9357 7.24068 20.8007 9.19335 20.9401 11.5H12.5001ZM11.5061 20.914C9.13939 20.792 7.14339 19.8727 5.51806 18.156C3.89272 16.4393 3.08039 14.3873 3.08106 12C3.08106 9.59601 3.89339 7.53601 5.51806 5.82001C7.14272 4.10401 9.13872 3.18468 11.5061 3.06201V20.914ZM12.5001 20.914V12.494H20.9391C20.8077 14.7873 19.9451 16.7347 18.3511 18.336C16.7571 19.936 14.8067 20.7953 12.5001 20.914Z" fill="#2168AB"/>
</svg>
