<svg width="16" height="16" viewBox="0 0 16 16" fill="none" xmlns="http://www.w3.org/2000/svg">
<path d="M8.03329 13.3332C6.5444 13.3332 5.27774 12.8165 4.23329 11.7832C3.18885 10.7498 2.66663 9.48873 2.66663 7.99984V7.88317L1.59996 8.94984L0.666626 8.0165L3.33329 5.34984L5.99996 8.0165L5.06663 8.94984L3.99996 7.88317V7.99984C3.99996 9.11095 4.39163 10.0554 5.17496 10.8332C5.95829 11.6109 6.91107 11.9998 8.03329 11.9998C8.32218 11.9998 8.60551 11.9665 8.88329 11.8998C9.16107 11.8332 9.43329 11.7332 9.69996 11.5998L10.7 12.5998C10.2777 12.8443 9.8444 13.0276 9.39996 13.1498C8.95551 13.2721 8.49996 13.3332 8.03329 13.3332ZM12.6666 10.6498L9.99996 7.98317L10.9333 7.04984L12 8.1165V7.99984C12 6.88873 11.6083 5.94428 10.825 5.1665C10.0416 4.38873 9.08885 3.99984 7.96663 3.99984C7.67774 3.99984 7.3944 4.03317 7.11663 4.09984C6.83885 4.1665 6.56663 4.2665 6.29996 4.39984L5.29996 3.39984C5.72218 3.15539 6.15551 2.97206 6.59996 2.84984C7.0444 2.72762 7.49996 2.6665 7.96663 2.6665C9.45551 2.6665 10.7222 3.18317 11.7666 4.2165C12.8111 5.24984 13.3333 6.51095 13.3333 7.99984V8.1165L14.4 7.04984L15.3333 7.98317L12.6666 10.6498Z" fill="#EAF3FB"/>
</svg>
