<svg width="24" height="24" viewBox="0 0 24 24" fill="none" xmlns="http://www.w3.org/2000/svg">
<path d="M5 20C4.71667 20 4.47933 19.904 4.288 19.712C4.09667 19.52 4.00067 19.2827 4 19V10C4 9.71667 4.096 9.47933 4.288 9.288C4.48 9.09667 4.71733 9.00067 5 9H7C7.28333 9 7.521 9.096 7.713 9.288C7.905 9.48 8.00067 9.71733 8 10V19C8 19.2833 7.904 19.521 7.712 19.713C7.52 19.905 7.28267 20.0007 7 20H5ZM5 8C4.71667 8 4.47933 7.904 4.288 7.712C4.09667 7.52 4.00067 7.28267 4 7V5C4 4.71667 4.096 4.47933 4.288 4.288C4.48 4.09667 4.71733 4.00067 5 4H7C7.28333 4 7.521 4.096 7.713 4.288C7.905 4.48 8.00067 4.71733 8 5V7C8 7.28333 7.904 7.521 7.712 7.713C7.52 7.905 7.28267 8.00067 7 8H5ZM11 20C10.7167 20 10.4793 19.904 10.288 19.712C10.0967 19.52 10.0007 19.2827 10 19V13C10 12.7167 10.096 12.4793 10.288 12.288C10.48 12.0967 10.7173 12.0007 11 12H13C13.2833 12 13.521 12.096 13.713 12.288C13.905 12.48 14.0007 12.7173 14 13V19C14 19.2833 13.904 19.521 13.712 19.713C13.52 19.905 13.2827 20.0007 13 20H11ZM11 11C10.7167 11 10.4793 10.904 10.288 10.712C10.0967 10.52 10.0007 10.2827 10 10V8C10 7.71667 10.096 7.47933 10.288 7.288C10.48 7.09667 10.7173 7.00067 11 7H13C13.2833 7 13.521 7.096 13.713 7.288C13.905 7.48 14.0007 7.71733 14 8V10C14 10.2833 13.904 10.521 13.712 10.713C13.52 10.905 13.2827 11.0007 13 11H11ZM17 20C16.7167 20 16.4793 19.904 16.288 19.712C16.0967 19.52 16.0007 19.2827 16 19V16C16 15.7167 16.096 15.4793 16.288 15.288C16.48 15.0967 16.7173 15.0007 17 15H19C19.2833 15 19.521 15.096 19.713 15.288C19.905 15.48 20.0007 15.7173 20 16V19C20 19.2833 19.904 19.521 19.712 19.713C19.52 19.905 19.2827 20.0007 19 20H17ZM17 14C16.7167 14 16.4793 13.904 16.288 13.712C16.0967 13.52 16.0007 13.2827 16 13V11C16 10.7167 16.096 10.4793 16.288 10.288C16.48 10.0967 16.7173 10.0007 17 10H19C19.2833 10 19.521 10.096 19.713 10.288C19.905 10.48 20.0007 10.7173 20 11V13C20 13.2833 19.904 13.521 19.712 13.713C19.52 13.905 19.2827 14.0007 19 14H17Z" fill="#2168AB"/>
</svg>
