<svg width="30" height="30" viewBox="0 0 30 30" fill="none" xmlns="http://www.w3.org/2000/svg">
<path d="M1 15C1 7.26801 7.26801 1 15 1V1C22.732 1 29 7.26801 29 15V15C29 22.732 22.732 29 15 29V29C7.26801 29 1 22.732 1 15V15Z" stroke="#DCDCDC"/>
<path d="M15 28.9998C22.732 28.9998 29 22.7317 29 14.9998C29 7.26777 22.732 0.999756 15 0.999756C7.26801 0.999756 1 7.26777 1 14.9998C1 22.7317 7.26801 28.9998 15 28.9998Z" fill="#D80027"/>
<path d="M15 8.30469L16.5109 12.9547H21.4003L17.4447 15.8285L18.9556 20.4786L15 17.6047L11.0445 20.4786L12.5554 15.8285L8.59985 12.9547H13.4891L15 8.30469Z" fill="#FFDA44"/>
</svg>
