<svg width="30" height="30" viewBox="0 0 30 30" fill="none" xmlns="http://www.w3.org/2000/svg">
<path d="M1 15C1 7.26801 7.26801 1 15 1V1C22.732 1 29 7.26801 29 15V15C29 22.732 22.732 29 15 29V29C7.26801 29 1 22.732 1 15V15Z" stroke="#DCDCDC"/>
<path d="M15 29C22.732 29 29 22.732 29 15C29 7.26801 22.732 1 15 1C7.26801 1 1 7.26801 1 15C1 22.732 7.26801 29 15 29Z" fill="white"/>
<path d="M28.1297 10.1304H1.87128C1.30849 11.647 1.00049 13.2874 1.00049 14.9999C1.00049 16.7124 1.30849 18.3528 1.87128 19.8694H28.1298C28.6925 18.3528 29.0005 16.7124 29.0005 14.9999C29.0005 13.2874 28.6925 11.647 28.1297 10.1304Z" fill="#0052B4"/>
<path d="M15.0019 0.999268C10.7586 0.999268 6.95657 2.8873 4.38916 5.86881H25.6145C23.0472 2.8873 19.2451 0.999268 15.0019 0.999268Z" fill="#D80027"/>
<path d="M25.6134 24.1304H4.38794C6.95535 27.1119 10.7574 28.9999 15.0007 28.9999C19.2439 28.9999 23.0459 27.1119 25.6134 24.1304Z" fill="#D80027"/>
</svg>
