<svg width="30" height="30" viewBox="0 0 30 30" fill="none" xmlns="http://www.w3.org/2000/svg">
<path d="M1 15C1 7.26801 7.26801 1 15 1V1C22.732 1 29 7.26801 29 15V15C29 22.732 22.732 29 15 29V29C7.26801 29 1 22.732 1 15V15Z" stroke="#DCDCDC"/>
<path d="M15 29C22.732 29 29 22.732 29 15C29 7.26801 22.732 1 15 1C7.26801 1 1 7.26801 1 15C1 22.732 7.26801 29 15 29Z" fill="white"/>
<path d="M15 21.0874C18.3618 21.0874 21.087 18.3622 21.087 15.0005C21.087 11.6388 18.3618 8.91357 15 8.91357C11.6383 8.91357 8.91309 11.6388 8.91309 15.0005C8.91309 18.3622 11.6383 21.0874 15 21.0874Z" fill="#D80027"/>
</svg>
