<svg width="30" height="30" viewBox="0 0 30 30" fill="none" xmlns="http://www.w3.org/2000/svg">
<path d="M1 15C1 7.26801 7.26801 1 15 1V1C22.732 1 29 7.26801 29 15V15C29 22.732 22.732 29 15 29V29C7.26801 29 1 22.732 1 15V15Z" stroke="#DCDCDC"/>
<path d="M15 28.9998C22.732 28.9998 29 22.7317 29 14.9998C29 7.26777 22.732 0.999756 15 0.999756C7.26801 0.999756 1 7.26777 1 14.9998C1 22.7317 7.26801 28.9998 15 28.9998Z" fill="white"/>
<path d="M19.8697 14.9994C19.8697 16.2168 17.6895 19.2603 15.0002 19.2603C12.3108 19.2603 10.1306 16.2168 10.1306 14.9994C10.1306 12.31 12.3108 10.1299 15.0002 10.1299C17.6895 10.1299 19.8697 12.31 19.8697 14.9994Z" fill="#D80027"/>
<path d="M19.8697 14.9993C19.8697 17.6887 17.6895 19.8688 15.0002 19.8688C12.3108 19.8688 10.1306 17.6887 10.1306 14.9993" fill="#0052B4"/>
<path d="M21.4558 18.013L20.1646 19.3042L21.0254 20.165L22.3166 18.8738L21.4558 18.013Z" fill="black"/>
<path d="M19.3032 20.1646L18.012 21.4558L18.8728 22.3166L20.164 21.0254L19.3032 20.1646Z" fill="black"/>
<path d="M24.0383 20.5935L22.7471 21.8848L23.6079 22.7456L24.8991 21.4544L24.0383 20.5935Z" fill="black"/>
<path d="M21.8869 22.7474L20.5957 24.0386L21.4565 24.8994L22.7477 23.6082L21.8869 22.7474Z" fill="black"/>
<path d="M22.7473 19.3045L21.4561 20.5957L22.3169 21.4565L23.6081 20.1653L22.7473 19.3045Z" fill="black"/>
<path d="M20.5952 21.4561L19.304 22.7473L20.1648 23.6081L21.456 22.3169L20.5952 21.4561Z" fill="black"/>
<path d="M19.3041 7.25109L22.7473 10.6943L23.6081 9.83351L20.1649 6.39027L19.3041 7.25109Z" fill="black"/>
<path d="M18.0132 8.54375L19.3044 9.83496L20.1652 8.97418L18.874 7.68296L18.0132 8.54375Z" fill="black"/>
<path d="M20.1653 10.6949L21.4565 11.9861L22.3173 11.1253L21.0261 9.83409L20.1653 10.6949Z" fill="black"/>
<path d="M20.5943 5.96098L21.8855 7.2522L22.7463 6.39137L21.4551 5.10016L20.5943 5.96098Z" fill="black"/>
<path d="M22.7476 8.11382L24.0388 9.40503L24.8996 8.54421L23.6084 7.25299L22.7476 8.11382Z" fill="black"/>
<path d="M9.40394 24.0392L5.96069 20.5959L5.09987 21.4568L8.54312 24.9L9.40394 24.0392Z" fill="black"/>
<path d="M10.6958 22.7465L9.40454 21.4553L8.54376 22.3161L9.83497 23.6073L10.6958 22.7465Z" fill="black"/>
<path d="M8.54341 20.5952L7.2522 19.304L6.39138 20.1648L7.68259 21.456L8.54341 20.5952Z" fill="black"/>
<path d="M11.987 21.4557L8.5437 18.0125L7.68288 18.8733L11.1261 22.3165L11.987 21.4557Z" fill="black"/>
<path d="M5.96153 9.40541L9.40479 5.96216L8.54396 5.10134L5.10071 8.54459L5.96153 9.40541Z" fill="black"/>
<path d="M7.25157 10.6945L10.6948 7.25122L9.834 6.3904L6.39075 9.83365L7.25157 10.6945Z" fill="black"/>
<path d="M8.54405 11.9862L11.9873 8.54297L11.1265 7.68218L7.68327 11.1254L8.54405 11.9862Z" fill="black"/>
</svg>
