<svg width="207" height="29" viewBox="0 0 207 29" fill="none" xmlns="http://www.w3.org/2000/svg">
<path d="M23.1367 21.1709C22.1493 21.1709 21.1711 21.3733 20.2588 21.7666C19.3465 22.1599 18.5176 22.7371 17.8193 23.4639C17.1212 24.1906 16.5673 25.0534 16.1895 26.0029C16.0584 26.3323 15.9498 26.6703 15.8633 27.0137C15.5931 28.0857 14.7533 28.998 13.6885 28.998H11.5674C11.5674 27.4168 11.8669 25.8505 12.4482 24.3896C13.0296 22.9289 13.8819 21.6015 14.9561 20.4834C16.0303 19.3652 17.3063 18.4782 18.71 17.873C20.1134 17.268 21.6176 16.9571 23.1367 16.957V21.1709ZM0 12.9395C1.51905 12.9395 3.02331 13.2505 4.42676 13.8555C5.83038 14.4606 7.10638 15.3477 8.18066 16.4658C9.25496 17.584 10.1071 18.9121 10.6885 20.373C11.2697 21.8338 11.5693 23.3994 11.5693 24.9805H9.44824C8.38336 24.9805 7.54353 24.0682 7.27344 22.9961C7.18695 22.6528 7.07834 22.3147 6.94727 21.9854C6.56937 21.0359 6.01558 20.173 5.31738 19.4463C4.61921 18.7196 3.7901 18.1433 2.87793 17.75C1.96564 17.3567 0.987454 17.1543 0 17.1543V12.9395ZM23.1367 9.12793C22.1493 9.12797 21.1711 9.33032 20.2588 9.72363C19.3466 10.117 18.5175 10.6933 17.8193 11.4199C17.121 12.1467 16.5674 13.0103 16.1895 13.96C16.0585 14.2891 15.9497 14.6266 15.8633 14.9697C15.5932 16.0419 14.7534 16.9551 13.6885 16.9551H11.5674C11.5674 15.3737 11.8668 13.8077 12.4482 12.3467C13.0296 10.8858 13.8819 9.55854 14.9561 8.44043C16.0303 7.32225 17.3063 6.43523 18.71 5.83008C20.1135 5.22501 21.6176 4.91312 23.1367 4.91309V9.12793ZM0 0.898438C1.51912 0.898487 3.02327 1.21036 4.42676 1.81543C5.83039 2.42058 7.10637 3.3076 8.18066 4.42578C9.25481 5.54389 10.1071 6.87121 10.6885 8.33203C11.2699 9.793 11.5684 11.3591 11.5684 12.9404H9.44824C8.38333 12.9404 7.54351 12.0273 7.27344 10.9551C7.18699 10.6119 7.07826 10.2745 6.94727 9.94531C6.56943 8.99586 6.01549 8.13298 5.31738 7.40625C4.61909 6.67943 3.78932 6.10233 2.87695 5.70898C1.96482 5.3158 0.987265 5.11333 0 5.11328V0.898438Z" fill="#FF8133"/>
<path d="M71.97 16.957L72.8616 20.5244H73.0022L73.9172 16.957L75.7249 11.208H78.9631L74.2229 25.4297C73.91 26.3838 73.4637 27.0873 72.885 27.541C72.3218 27.9947 71.5084 28.2217 70.4446 28.2217H68.2854V25.5234H69.7903C70.277 25.5234 70.7066 25.2061 70.8508 24.7412L71.0315 24.1621L66.7131 11.208H70.1624L71.97 16.957ZM125.855 10.9268C127.419 10.9268 128.601 11.4742 129.399 12.5693C130.197 13.6645 130.596 15.2601 130.596 17.3564C130.596 19.4529 130.197 21.0572 129.399 22.168C128.601 23.2629 127.419 23.8105 125.855 23.8105C125.448 23.8105 125.065 23.7472 124.705 23.6221C124.346 23.5126 124.017 23.3566 123.72 23.1533C123.438 22.9344 123.196 22.6838 122.992 22.4023C122.789 22.1052 122.64 21.7923 122.546 21.4639H122.429V26.3701C122.429 27.3927 121.6 28.2215 120.577 28.2217H118.955V11.208H122.429V13.2734H122.546C122.718 12.5851 123.11 12.022 123.72 11.584C124.346 11.146 125.057 10.9268 125.855 10.9268ZM59.6487 10.9268C61.4008 10.9268 62.7149 11.3097 63.5911 12.0762C64.4672 12.8428 64.9055 13.962 64.9055 15.4326V20.8301H66.0559V23.5283H64.1311C63.5054 23.5283 62.9812 23.3333 62.5588 22.9424C62.1521 22.5513 61.8939 22.0262 61.7844 21.3691H61.6438C61.4561 22.167 61.0411 22.7778 60.3997 23.2002C59.7582 23.6069 58.9682 23.8105 58.0295 23.8105C56.7936 23.8105 55.8468 23.4813 55.1897 22.8242C54.5328 22.1672 54.2044 21.2991 54.2043 20.2197C54.2043 18.9212 54.6738 17.9588 55.6125 17.333C56.5669 16.6917 57.8577 16.3711 59.4846 16.3711H61.4319V15.5967C61.4319 15.0022 61.276 14.5327 60.9631 14.1885C60.6503 13.8287 60.1261 13.6485 59.3909 13.6484C58.7026 13.6484 58.155 13.7976 57.7483 14.0947C57.3415 14.392 57.0045 14.728 56.7385 15.1035L54.6741 13.2734C55.1747 12.5382 55.8002 11.9673 56.551 11.5605C57.3176 11.1381 58.3502 10.9268 59.6487 10.9268ZM85.0266 10.9268C86.7787 10.9268 88.0929 11.3096 88.969 12.0762C89.8451 12.8428 90.2834 13.962 90.2834 15.4326V20.8301H91.4329V23.5283H89.509C88.8834 23.5283 88.3591 23.3332 87.9368 22.9424C87.53 22.5513 87.2719 22.0262 87.1624 21.3691H87.0208C86.833 22.167 86.419 22.7778 85.7776 23.2002C85.1362 23.6069 84.346 23.8105 83.4075 23.8105C82.1715 23.8105 81.2247 23.4813 80.5676 22.8242C79.9106 22.1671 79.5823 21.2991 79.5823 20.2197C79.5823 18.9213 80.0509 17.9588 80.9895 17.333C81.9439 16.6916 83.2355 16.3711 84.8625 16.3711H86.8098V15.5967C86.8098 15.0022 86.653 14.5327 86.3401 14.1885C86.0272 13.8288 85.503 13.6484 84.7678 13.6484C84.0796 13.6485 83.5319 13.7975 83.1252 14.0947C82.7186 14.3919 82.3824 14.7282 82.1165 15.1035L80.051 13.2734C80.5517 12.5381 81.178 11.9673 81.929 11.5605C82.6956 11.1382 83.7281 10.9268 85.0266 10.9268ZM146.704 10.9268C148.456 10.9268 149.771 11.3096 150.647 12.0762C151.523 12.8428 151.96 13.962 151.96 15.4326V20.8301H153.111V23.5283H151.186C150.56 23.5282 150.036 23.3334 149.614 22.9424C149.207 22.5513 148.949 22.0262 148.839 21.3691H148.698C148.511 22.1669 148.097 22.7778 147.455 23.2002C146.814 23.607 146.023 23.8105 145.084 23.8105C143.848 23.8105 142.902 23.4812 142.245 22.8242C141.588 22.1671 141.259 21.2992 141.259 20.2197C141.259 18.9212 141.729 17.9588 142.667 17.333C143.622 16.6916 144.912 16.3711 146.539 16.3711H148.488V15.5967C148.488 15.0022 148.331 14.5327 148.018 14.1885C147.705 13.8287 147.181 13.6484 146.446 13.6484C145.757 13.6485 145.21 13.7975 144.803 14.0947C144.396 14.3919 144.06 14.7282 143.794 15.1035L141.729 13.2734C142.229 12.5383 142.855 11.9673 143.606 11.5605C144.372 11.1381 145.406 10.9268 146.704 10.9268ZM175.802 10.9268C176.819 10.9268 177.688 11.0982 178.407 11.4424C179.143 11.7866 179.737 12.2484 180.191 12.8271C180.66 13.406 180.996 14.0791 181.199 14.8457C181.418 15.5966 181.529 16.3867 181.529 17.2158V18.248H173.619V18.4365C173.619 19.2498 173.839 19.8989 174.277 20.3838C174.715 20.8531 175.403 21.0879 176.342 21.0879C177.061 21.0879 177.648 20.9475 178.102 20.666C178.556 20.3688 178.978 20.0161 179.369 19.6094L181.106 21.7686C180.558 22.41 179.838 22.9107 178.947 23.2705C178.07 23.6303 177.069 23.8105 175.943 23.8105C175.004 23.8105 174.167 23.6615 173.432 23.3643C172.697 23.0514 172.07 22.6208 171.554 22.0732C171.054 21.5102 170.67 20.8298 170.405 20.0322C170.154 19.2343 170.029 18.3421 170.029 17.3564C170.029 16.3866 170.154 15.5107 170.405 14.7285C170.655 13.9307 171.022 13.2497 171.507 12.6865C172.008 12.1233 172.618 11.6928 173.338 11.3955C174.058 11.0827 174.879 10.9268 175.802 10.9268ZM188.966 10.9268C190.218 10.9268 191.258 11.2083 192.087 11.7715C192.932 12.3348 193.963 13.767 193.963 15.3623H191.077C190.968 14.8931 190.742 14.4935 190.398 14.165C190.054 13.8365 189.576 13.6719 188.966 13.6719C188.262 13.6719 187.73 13.9068 187.37 14.376C187.011 14.8297 186.83 15.4482 186.83 16.2305V18.5303C186.83 19.3124 187.011 19.9301 187.37 20.3838C187.73 20.8374 188.262 21.0645 188.966 21.0645C189.592 21.0644 190.085 20.8998 190.445 20.5713C190.618 20.4121 190.77 20.231 190.9 20.0283C191.178 19.5955 191.628 19.2597 192.141 19.2959L193.964 19.4248C193.963 21.0648 192.924 22.4417 192.064 22.9893C191.219 23.5368 190.186 23.8105 188.966 23.8105C188.043 23.8105 187.221 23.6615 186.501 23.3643C185.782 23.0514 185.179 22.6207 184.695 22.0732C184.21 21.5102 183.842 20.8298 183.592 20.0322C183.342 19.2343 183.216 18.3421 183.216 17.3564C183.216 16.3709 183.342 15.4872 183.592 14.7051C183.842 13.9072 184.21 13.2263 184.695 12.6631C185.18 12.0999 185.782 11.6693 186.501 11.3721C187.221 11.0748 188.043 10.9268 188.966 10.9268ZM103.757 6.86621C105.275 6.86622 106.526 7.17889 107.512 7.80469C108.498 8.41492 110.086 10.0992 110.086 12.3105H106.808C106.589 11.6224 106.245 11.0747 105.776 10.668C105.322 10.2456 104.649 10.0342 103.757 10.0342C102.709 10.0342 101.864 10.3782 101.223 11.0664C100.597 11.7391 100.283 12.7249 100.283 14.0234V16.6523C100.284 17.9506 100.597 18.9435 101.223 19.6318C101.864 20.3046 102.709 20.6416 103.757 20.6416C104.633 20.6416 105.33 20.4068 105.846 19.9375C106.095 19.7101 106.263 19.462 106.396 19.1934C106.679 18.6223 107.216 18.2157 107.853 18.2373L110.086 18.3125C109.97 20.7197 108.513 22.1124 107.512 22.8008C106.526 23.4735 105.275 23.8096 103.757 23.8096C102.646 23.8096 101.645 23.6372 100.753 23.293C99.8614 22.9331 99.1026 22.4091 98.4768 21.7207C97.8511 21.0167 97.3659 20.1487 97.0217 19.1162C96.6775 18.068 96.5051 16.8475 96.5051 15.4551C96.5051 14.0783 96.6775 12.8578 97.0217 11.7939C97.3659 10.7146 97.8511 9.81532 98.4768 9.0957C99.1026 8.36038 99.8614 7.80419 100.753 7.42871C101.645 7.05328 102.646 6.86621 103.757 6.86621ZM115.726 21.6885C115.726 22.711 114.896 23.54 113.873 23.54H112.252V11.2197H115.726V21.6885ZM137.233 11.2139H139.673V13.9121H137.233V20.8359H139.486V23.5342H137.42C136.215 23.5342 135.3 23.2293 134.674 22.6191C134.064 22.009 133.759 21.1167 133.759 19.9434V13.9121H132.023V11.2139H132.891C133.36 11.2139 133.681 11.1038 133.853 10.8848C134.025 10.6501 134.112 10.3218 134.112 9.89941V7.88086H137.233V11.2139ZM199.584 13.2979H199.725C199.944 12.6564 200.328 12.1012 200.875 11.6318C201.423 11.1625 202.182 10.9277 203.152 10.9277C204.419 10.9278 205.373 11.3505 206.015 12.1953C206.672 13.0401 207 14.2445 207 15.8086V21.6787C207 22.7011 206.171 23.5302 205.149 23.5303H203.527V16.0908C203.527 15.2932 203.402 14.7066 203.152 14.3311C202.901 13.9399 202.455 13.7441 201.814 13.7441C201.532 13.7441 201.258 13.7831 200.992 13.8613C200.727 13.9239 200.484 14.0331 200.265 14.1895C200.062 14.3459 199.897 14.5417 199.772 14.7764C199.647 14.9953 199.584 15.2536 199.584 15.5508V21.6787C199.584 22.7011 198.755 23.5303 197.733 23.5303H196.112V6.16406H199.584V13.2979ZM45.0286 7.14746C46.1081 7.14746 47.0938 7.31987 47.9856 7.66406C48.8773 8.00826 49.6362 8.52455 50.262 9.21289C50.8877 9.88559 51.3729 10.7381 51.717 11.7705C52.0612 12.7874 52.2336 13.9768 52.2336 15.3379C52.2336 16.6987 52.0611 17.8953 51.717 18.9277C51.3728 19.9447 50.8878 20.7979 50.262 21.4863C49.6362 22.159 48.8773 22.6675 47.9856 23.0117C47.0938 23.3559 46.1081 23.5273 45.0286 23.5273H38.8567V7.14746H45.0286ZM170.083 10.3154H165.648V21.6758C165.648 22.6984 164.819 23.5273 163.796 23.5273H162.081V10.3154H157.646V7.14746H170.083V10.3154ZM59.7424 18.3418C58.3816 18.3418 57.7016 18.8037 57.7014 19.7266V20.0791C57.7015 20.5326 57.8418 20.8689 58.1233 21.0879C58.4049 21.2913 58.8043 21.3926 59.3206 21.3926C59.8993 21.3925 60.3924 21.2679 60.7991 21.0176C61.2213 20.7672 61.4319 20.36 61.4319 19.7969V18.3418H59.7424ZM85.1204 18.3418C83.7594 18.3418 83.0785 18.8037 83.0784 19.7266V20.0791C83.0784 20.5327 83.2197 20.8689 83.5012 21.0879C83.7828 21.2912 84.1814 21.3925 84.6975 21.3926C85.2763 21.3926 85.7693 21.2678 86.176 21.0176C86.5984 20.7673 86.8098 20.3601 86.8098 19.7969V18.3418H85.1204ZM146.798 18.3418C145.437 18.3418 144.756 18.8037 144.756 19.7266V20.0791C144.756 20.5327 144.897 20.8689 145.179 21.0879C145.461 21.2911 145.859 21.3926 146.375 21.3926C146.954 21.3926 147.447 21.2679 147.854 21.0176C148.276 20.7673 148.488 20.3601 148.488 19.7969V18.3418H146.798ZM124.705 13.7422C124.048 13.7422 123.501 13.9069 123.063 14.2354C122.64 14.5483 122.429 14.9866 122.429 15.5498V19.1875C122.429 19.7505 122.64 20.1959 123.063 20.5244C123.501 20.8373 124.048 20.9941 124.705 20.9941C125.362 20.9941 125.902 20.7671 126.324 20.3135C126.762 19.8442 126.982 19.2186 126.982 18.4365V16.3008C126.982 15.5185 126.763 14.9 126.324 14.4463C125.902 13.9771 125.362 13.7422 124.705 13.7422ZM42.4241 20.3594H45.0286C46.0923 20.3594 46.9292 20.0622 47.5393 19.4678C48.1495 18.8733 48.4553 17.9187 48.4553 16.6045V14.0703C48.4553 12.7561 48.1495 11.8015 47.5393 11.207C46.9292 10.6127 46.0923 10.3154 45.0286 10.3154H42.4241V20.3594ZM175.872 13.4844C175.168 13.4844 174.613 13.7192 174.206 14.1885C173.815 14.6421 173.619 15.2521 173.619 16.0186V16.207H177.938V15.9951C177.938 15.2443 177.765 14.6421 177.421 14.1885C177.093 13.7192 176.576 13.4844 175.872 13.4844ZM115.784 7.84277C115.784 8.62174 115.152 9.25384 114.373 9.25391H112.257V6.19727H115.784V7.84277Z" fill="#161616"/>
</svg>
