<svg width="111" height="24" viewBox="0 0 111 24" fill="none" xmlns="http://www.w3.org/2000/svg">
<path d="M68.8391 23.9999C67.6747 23.9999 66.5211 23.7951 65.3782 23.3854C64.2569 22.9541 63.3189 22.3288 62.5642 21.5094C61.8095 20.6684 61.389 19.6334 61.3027 18.4043H66.2515C66.3378 19.008 66.6181 19.4824 67.0925 19.8274C67.5885 20.1509 68.1491 20.3126 68.7744 20.3126C69.292 20.3126 69.7448 20.2156 70.1329 20.0215C70.5426 19.8059 70.7475 19.4609 70.7475 18.9865C70.7475 18.5983 70.5642 18.2964 70.1976 18.0808C69.831 17.8436 69.3998 17.6603 68.9038 17.5309C68.4294 17.4016 68.0089 17.2937 67.6424 17.2075C66.6289 16.9487 65.6801 16.6576 64.796 16.3342C63.9119 16.0107 63.1895 15.5363 62.6289 14.911C62.0898 14.2857 61.8203 13.4016 61.8203 12.2587C61.8203 11.159 62.1221 10.2318 62.7259 9.47704C63.3297 8.72232 64.1383 8.15089 65.1518 7.76275C66.1653 7.37461 67.2758 7.18054 68.4833 7.18054C70.3809 7.18054 71.9442 7.65494 73.1734 8.60372C74.424 9.53095 75.1572 10.911 75.3728 12.7439H70.7475C70.6397 12.097 70.3701 11.6334 69.9389 11.353C69.5076 11.0512 68.9685 10.9002 68.3216 10.9002C67.8472 10.9002 67.4267 10.9973 67.0602 11.1913C66.6936 11.3638 66.5103 11.6873 66.5103 12.1617C66.5103 12.5498 66.6828 12.8625 67.0278 13.0997C67.3944 13.3153 67.8149 13.477 68.2893 13.5849C68.7637 13.6927 69.1949 13.8005 69.5831 13.9083C70.6181 14.1671 71.5669 14.469 72.4294 14.814C73.3135 15.159 74.0359 15.6549 74.5965 16.3018C75.1572 16.9272 75.4483 17.8328 75.4699 19.0188C75.4699 20.0754 75.1572 20.9811 74.5318 21.7358C73.9281 22.4689 73.1194 23.0296 72.106 23.4177C71.1141 23.8059 70.0251 23.9999 68.8391 23.9999Z" fill="#0C6FFF"/>
<path d="M50.1123 24C48.7754 24 47.6433 23.7089 46.7161 23.1267C45.8105 22.5229 45.1204 21.7035 44.646 20.6685C44.1932 19.6119 43.9668 18.4151 43.9668 17.0782V7.56873H48.9156V16.4636C48.9156 17.4555 49.1636 18.2641 49.6595 18.8895C50.1555 19.5148 50.8994 19.8275 51.8913 19.8275C52.8832 19.8275 53.6272 19.5148 54.1231 18.8895C54.6191 18.2641 54.8671 17.4555 54.8671 16.4636V7.56873H59.8482V23.6118H54.8671V21.6065C54.3064 22.4043 53.6164 23.0081 52.797 23.4178C51.9776 23.8059 51.0827 24 50.1123 24Z" fill="#0C6FFF"/>
<path d="M39.7051 6.14555C38.8641 6.14555 38.1418 5.84366 37.538 5.23989C36.9342 4.63612 36.6323 3.91375 36.6323 3.07277C36.6323 2.23181 36.9342 1.50943 37.538 0.90566C38.1418 0.301886 38.8641 0 39.7051 0C40.5892 0 41.3224 0.301886 41.9046 0.90566C42.4868 1.50943 42.7779 2.23181 42.7779 3.07277C42.7779 3.91375 42.4868 4.63612 41.9046 5.23989C41.3224 5.84366 40.5892 6.14555 39.7051 6.14555ZM37.2145 23.6119V7.56873H42.1957V23.6119H37.2145Z" fill="#0C6FFF"/>
<path d="M25.8087 23.6118V7.56868H30.7898V10.0592C31.3505 9.23984 32.0621 8.5606 32.9246 8.02151C33.7872 7.46086 34.7791 7.18054 35.9004 7.18054V12.4528H34.5095C33.2588 12.4528 32.3208 12.7331 31.6955 13.2937C31.0917 13.8544 30.7898 14.7816 30.7898 16.0754V23.6118H25.8087Z" fill="#0C6FFF"/>
<path d="M21.3532 6.14555C20.5122 6.14555 19.7898 5.84366 19.1861 5.23989C18.5823 4.63612 18.2804 3.91375 18.2804 3.07277C18.2804 2.23181 18.5823 1.50943 19.1861 0.90566C19.7898 0.301886 20.5122 0 21.3532 0C22.2373 0 22.9704 0.301886 23.5526 0.90566C24.1348 1.50943 24.4259 2.23181 24.4259 3.07277C24.4259 3.91375 24.1348 4.63612 23.5526 5.23989C22.9704 5.84366 22.2373 6.14555 21.3532 6.14555ZM18.8626 23.6119V7.56873H23.8437V23.6119H18.8626Z" fill="#0C6FFF"/>
<path d="M8.7655 23.9999C7.16981 23.9999 5.71428 23.7412 4.39892 23.2237C3.10512 22.6846 2.0593 21.8867 1.26146 20.8301C0.485175 19.752 0.06469 18.3935 0 16.7547H5.36927C5.45552 17.5094 5.75741 18.1886 6.27493 18.7924C6.81402 19.3962 7.62264 19.6981 8.70081 19.6981C9.62803 19.6981 10.3181 19.4932 10.7709 19.0835C11.2453 18.6738 11.4825 18.1347 11.4825 17.4662C11.4825 17.1644 11.4286 16.884 11.3208 16.6253C11.2345 16.3665 11.0512 16.1185 10.7709 15.8813C10.4906 15.6226 10.0593 15.3638 9.47709 15.1051C8.91644 14.8463 8.16172 14.566 7.21294 14.2641C5.44474 13.7034 4.06469 13.0458 3.07278 12.291C2.08086 11.5363 1.38005 10.7277 0.97035 9.86517C0.58221 9.00264 0.38814 8.11854 0.38814 7.21288C0.409703 5.74657 0.77628 4.52824 1.48787 3.55789C2.19946 2.56598 3.14825 1.82204 4.33423 1.32609C5.52021 0.830131 6.84636 0.582153 8.31267 0.582153C9.77897 0.582153 11.1159 0.840913 12.3234 1.35843C13.5526 1.85439 14.5445 2.59832 15.2992 3.59024C16.0539 4.58215 16.442 5.81126 16.4636 7.27757H10.965C10.9434 6.69536 10.6954 6.14549 10.221 5.62797C9.74663 5.11045 9.04582 4.85169 8.1186 4.85169C7.45013 4.87326 6.87871 5.06733 6.40431 5.4339C5.95148 5.77892 5.72507 6.27487 5.72507 6.92177C5.72507 7.48242 5.96226 7.9676 6.43666 8.3773C6.91105 8.787 7.57951 9.16436 8.44205 9.50937C9.32614 9.85439 10.3504 10.221 11.5148 10.6091C12.3989 10.911 13.1752 11.2668 13.8437 11.6765C14.5337 12.0646 15.1051 12.5282 15.5579 13.0673C16.0108 13.5848 16.3558 14.1778 16.593 14.8463C16.8302 15.5148 16.9488 16.2695 16.9488 17.1105C16.9488 18.4905 16.593 19.6981 15.8814 20.7331C15.1914 21.7681 14.2318 22.5768 13.0027 23.159C11.7736 23.7196 10.3612 23.9999 8.7655 23.9999Z" fill="#0C6FFF"/>
<path fill-rule="evenodd" clip-rule="evenodd" d="M109.635 0.0236041C108.479 -0.483973 96.0401 7.41167 91.4437 2.84348C91.2185 2.57596 90.9122 2.38918 90.5713 2.31147C90.2303 2.23376 89.8734 2.26935 89.5545 2.41284C89.2356 2.55634 88.9722 2.79992 88.8043 3.10663C88.6363 3.41334 88.573 3.76646 88.6238 4.11242C87.6651 12.9386 87.9753 12.8822 86.0578 16.5227C83.5452 21.6548 79.9358 22.5854 81.6841 23.7133C81.7983 23.8129 81.9378 23.8787 82.0871 23.9036C82.2365 23.9285 82.3899 23.9115 82.5301 23.8543C82.7557 23.8543 85.35 21.6548 85.5192 21.4293C89.4868 17.5639 91.8272 12.3284 92.0613 6.79412C97.0524 8.34505 101.905 5.60977 106.674 3.55127C106.674 3.69226 102.754 10.2626 102.613 10.4318C99.1918 14.8066 94.5769 18.0973 89.326 19.9065C89.0958 20.0028 88.9119 20.1846 88.8129 20.4136C88.7139 20.6427 88.7076 20.9012 88.7952 21.1348C88.8828 21.3685 89.0576 21.559 89.2827 21.6665C89.5079 21.774 89.766 21.79 90.0028 21.7112C95.8939 20.3261 101.178 17.0714 105.067 12.4339C107.024 9.2971 108.64 5.96009 109.888 2.47971C110.199 1.65913 110.622 0.446585 109.635 0.0236041Z" fill="#0C6FFF"/>
</svg>
