<svg width="20" height="21" viewBox="0 0 20 21" fill="none" xmlns="http://www.w3.org/2000/svg">
<path fill-rule="evenodd" clip-rule="evenodd" d="M14.6083 7.14155C14.8524 7.38563 14.8524 7.78136 14.6083 8.02544L8.77495 13.8588C8.53087 14.1028 8.13514 14.1028 7.89107 13.8588L5.39107 11.3588C5.14699 11.1147 5.14699 10.719 5.39107 10.4749C5.63514 10.2308 6.03087 10.2308 6.27495 10.4749L8.33301 12.5329L13.7244 7.14155C13.9685 6.89748 14.3642 6.89748 14.6083 7.14155Z" fill="#1C7D3B"/>
<path fill-rule="evenodd" clip-rule="evenodd" d="M0.833008 10.5002C0.833008 5.43743 4.93694 1.3335 9.99967 1.3335C15.0624 1.3335 19.1663 5.43743 19.1663 10.5002C19.1663 15.5629 15.0624 19.6668 9.99967 19.6668C4.93694 19.6668 0.833008 15.5629 0.833008 10.5002ZM9.99967 3.00016C5.85741 3.00016 2.49967 6.3579 2.49967 10.5002C2.49967 14.6424 5.85741 18.0002 9.99967 18.0002C14.1419 18.0002 17.4997 14.6424 17.4997 10.5002C17.4997 6.3579 14.1419 3.00016 9.99967 3.00016Z" fill="#1C7D3B"/>
</svg>
