<svg width="16" height="16" viewBox="0 0 16 16" fill="none" xmlns="http://www.w3.org/2000/svg">
<path fill-rule="evenodd" clip-rule="evenodd" d="M12 2C12.3681 2 12.6666 2.29848 12.6666 2.66667L12.6666 13.3333C12.6666 13.7015 12.3681 14 12 14C11.6318 14 11.3333 13.7015 11.3333 13.3333L11.3333 2.66667C11.3333 2.29848 11.6318 2 12 2ZM9.33329 2C9.70148 2 9.99996 2.29848 9.99996 2.66667L9.99996 13.3333C9.99996 13.7015 9.70148 14 9.33329 14C8.9651 14 8.66663 13.7015 8.66663 13.3333L8.66663 2.66667C8.66663 2.29848 8.9651 2 9.33329 2ZM6.66663 2C7.03482 2 7.33329 2.29848 7.33329 2.66667L7.33329 13.3333C7.33329 13.7015 7.03482 14 6.66663 14C6.29844 14 5.99996 13.7015 5.99996 13.3333L5.99996 2.66667C5.99996 2.29848 6.29844 2 6.66663 2ZM3.99996 2C4.36815 2 4.66663 2.29848 4.66663 2.66667L4.66663 13.3333C4.66663 13.7015 4.36815 14 3.99996 14C3.63177 14 3.33329 13.7015 3.33329 13.3333L3.33329 2.66667C3.33329 2.29848 3.63177 2 3.99996 2Z" fill="#2168AB"/>
</svg>
