<svg width="16" height="16" viewBox="0 0 16 16" fill="none" xmlns="http://www.w3.org/2000/svg">
<path d="M14 7.33333H13V7H11.6667V9H13V8.66667H14V9.33333C14 9.7 13.7 10 13.3333 10H11.3333C10.9667 10 10.6667 9.7 10.6667 9.33333V6.66667C10.6667 6.3 10.9667 6 11.3333 6H13.3333C13.7 6 14 6.3 14 6.66667V7.33333ZM5.33333 6.66667V10H4.33333V9H3V10H2V6.66667C2 6.3 2.3 6 2.66667 6H4.66667C5.03333 6 5.33333 6.3 5.33333 6.66667ZM4.33333 7H3V8H4.33333V7ZM9 8C9.36667 8 9.66667 8.3 9.66667 8.66667V9.33333C9.66667 9.7 9.36667 10 9 10H6.33333V6H9C9.36667 6 9.66667 6.3 9.66667 6.66667V7.33333C9.66667 7.7 9.36667 8 9 8ZM7.33333 7V7.5H8.66667V7H7.33333ZM8.66667 8.5H7.33333V9H8.66667V8.5Z" fill="#2168AB"/>
</svg>
