<svg width="16" height="16" viewBox="0 0 16 16" fill="none" xmlns="http://www.w3.org/2000/svg">
<path fill-rule="evenodd" clip-rule="evenodd" d="M2 4.00004C2 3.63185 2.29848 3.33337 2.66667 3.33337H13.3333C13.7015 3.33337 14 3.63185 14 4.00004C14 4.36823 13.7015 4.66671 13.3333 4.66671H2.66667C2.29848 4.66671 2 4.36823 2 4.00004ZM2 6.66671C2 6.29852 2.29848 6.00004 2.66667 6.00004H13.3333C13.7015 6.00004 14 6.29852 14 6.66671C14 7.0349 13.7015 7.33337 13.3333 7.33337H2.66667C2.29848 7.33337 2 7.0349 2 6.66671ZM2 9.33337C2 8.96518 2.29848 8.66671 2.66667 8.66671H13.3333C13.7015 8.66671 14 8.96518 14 9.33337C14 9.70156 13.7015 10 13.3333 10H2.66667C2.29848 10 2 9.70156 2 9.33337ZM2 12C2 11.6319 2.29848 11.3334 2.66667 11.3334H13.3333C13.7015 11.3334 14 11.6319 14 12C14 12.3682 13.7015 12.6667 13.3333 12.6667H2.66667C2.29848 12.6667 2 12.3682 2 12Z" fill="#CC4E00"/>
</svg>
