<svg width="16" height="16" viewBox="0 0 16 16" fill="none" xmlns="http://www.w3.org/2000/svg">
<path d="M8.03366 13.3334C6.54477 13.3334 5.2781 12.8167 4.23366 11.7834C3.18921 10.75 2.66699 9.48891 2.66699 8.00002V7.88335L1.60033 8.95002L0.666992 8.01669L3.33366 5.35002L6.00033 8.01669L5.06699 8.95002L4.00033 7.88335V8.00002C4.00033 9.11113 4.39199 10.0556 5.17533 10.8334C5.95866 11.6111 6.91144 12 8.03366 12C8.32255 12 8.60588 11.9667 8.88366 11.9C9.16144 11.8334 9.43366 11.7334 9.70033 11.6L10.7003 12.6C10.2781 12.8445 9.84477 13.0278 9.40032 13.15C8.95588 13.2722 8.50033 13.3334 8.03366 13.3334ZM12.667 10.65L10.0003 7.98335L10.9337 7.05002L12.0003 8.11669V8.00002C12.0003 6.88891 11.6087 5.94446 10.8253 5.16669C10.042 4.38891 9.08921 4.00002 7.96699 4.00002C7.6781 4.00002 7.39477 4.03335 7.11699 4.10002C6.83921 4.16669 6.56699 4.26669 6.30033 4.40002L5.30033 3.40002C5.72255 3.15558 6.15588 2.97224 6.60033 2.85002C7.04477 2.7278 7.50033 2.66669 7.96699 2.66669C9.45588 2.66669 10.7225 3.18335 11.767 4.21669C12.8114 5.25002 13.3337 6.51113 13.3337 8.00002V8.11669L14.4003 7.05002L15.3337 7.98335L12.667 10.65Z" fill="#EAF3FB"/>
</svg>
