<svg width="72" height="73" viewBox="0 0 72 73" fill="none" xmlns="http://www.w3.org/2000/svg">
<g opacity="0.42">
<path opacity="0.5" d="M36 9.5C29.0678 9.5 24.6902 17.2615 15.9351 32.7845L14.8442 34.7188C7.56874 47.6183 3.93103 54.0681 7.21877 58.784C10.5065 63.5 18.6407 63.5 34.909 63.5H37.091C53.3593 63.5 61.4935 63.5 64.7812 58.784C68.069 54.0681 64.4313 47.6183 57.1558 34.7188L56.0649 32.7845C47.3098 17.2615 42.9322 9.5 36 9.5Z" fill="#8F790A"/>
<path d="M36 22.25C37.2426 22.25 38.25 23.2574 38.25 24.5V39.5C38.25 40.7426 37.2426 41.75 36 41.75C34.7574 41.75 33.75 40.7426 33.75 39.5V24.5C33.75 23.2574 34.7574 22.25 36 22.25Z" fill="#181402"/>
<path d="M36 51.5C37.6569 51.5 39 50.1569 39 48.5C39 46.8431 37.6569 45.5 36 45.5C34.3431 45.5 33 46.8431 33 48.5C33 50.1569 34.3431 51.5 36 51.5Z" fill="#181402"/>
</g>
</svg>
